<?xml version="1.0" encoding="UTF-8"?>
<svg version="1.1" xmlns="http://www.w3.org/2000/svg" width="240" height="240">
<path d="M0 0 C79.2 0 158.4 0 240 0 C240 79.2 240 158.4 240 240 C160.8 240 81.6 240 0 240 C0 160.8 0 81.6 0 0 Z " fill="#010000" transform="translate(0,0)"/>
<path d="M0 0 C0.45956903 0.3986602 0.91913807 0.7973204 1.39263344 1.20806122 C4.51041043 3.89917371 7.63013256 6.52075802 10.94287109 8.97070312 C17.09285826 13.92093138 22.09851551 18.54217979 23.09472656 26.68359375 C23.35604135 32.13926887 23.12981286 37.56570493 22.81506348 43.01535034 C21.59260648 65.42804329 23.64120956 82.12315754 34.39257812 101.80810547 C36.70538159 106.40069242 38.31824967 111.13651816 39.94824219 116.00610352 C40.81707067 118.47927986 41.75942999 120.69969439 43 123 C45.49377268 127.66576825 47.04001805 132.66704922 48.76171875 137.65625 C49.78773817 140.4268261 50.90473442 142.91329292 52.3125 145.5 C54.16719035 149.34676518 54.69998923 150.82020817 54 155 C51.9607 157.7734178 49.52182679 160.04304048 47 162.375 C46.33226562 163.01566406 45.66453125 163.65632812 44.9765625 164.31640625 C43.33041777 165.89200192 41.67196565 167.45190719 40 169 C36.89624745 165.44252091 35.09799673 162.24478148 33.5 157.8125 C33.07847656 156.66652344 32.65695313 155.52054688 32.22265625 154.33984375 C31.61744141 152.68662109 31.61744141 152.68662109 31 151 C30.31995753 149.28868434 29.63315221 147.58002992 28.9375 145.875 C26.85087348 140.62477843 24.93073752 135.30952818 23 130 C22.67 143.53 22.34 157.06 22 171 C19.69 169.02 17.38 167.04 15 165 C13.71043494 164.09113154 12.40918015 163.19807665 11.08665466 162.33787537 C5.35868575 158.10724518 0.91369151 153.70872255 -0.83195114 146.62306595 C-2.04023688 137.17958646 -1.77358205 127.68775535 -1.52090907 118.18972707 C-1.42628975 114.026145 -1.41826321 109.86235202 -1.40052795 105.69786072 C-1.35414767 97.8344926 -1.23140682 89.97430203 -1.08028561 82.11232513 C-0.91184979 73.15250262 -0.82996062 64.19251755 -0.75485408 55.23150265 C-0.59861769 36.81920897 -0.33527419 18.40986106 0 0 Z " fill="#FADA57" transform="translate(136,39)"/>
<path d="M0 0 C5.61 0 11.22 0 17 0 C17 13.53 17 27.06 17 41 C16.34 41 15.68 41 15 41 C14.32694982 39.39850114 13.66177773 37.79368971 13 36.1875 C12.443125 34.84751953 12.443125 34.84751953 11.875 33.48046875 C11 31 11 31 11 28 C10.34 28 9.68 28 9 28 C8.86698486 28.73186523 8.73396973 29.46373047 8.59692383 30.21777344 C6.26909946 41.06762477 1.03367623 51.60192765 -3.05407715 61.89569092 C-4.96495402 66.70786953 -6.87073064 71.52206837 -8.77734375 76.3359375 C-9.1484024 77.27237091 -9.51946106 78.20880432 -9.90176392 79.1736145 C-13.96749257 89.43623536 -17.99782744 99.71242492 -22 110 C-22.37705078 110.96558838 -22.37705078 110.96558838 -22.76171875 111.95068359 C-25.09740711 117.93346545 -27.33085434 123.93259468 -29.4375 130 C-29.87449219 131.16144531 -30.31148437 132.32289063 -30.76171875 133.51953125 C-32.05760432 136.94496003 -32.05760432 136.94496003 -32.76953125 140.38671875 C-34.37110776 145.77848032 -35.88773513 148.71403962 -40.68359375 151.63378906 C-59.08935283 161 -59.08935283 161 -65 161 C-62.68077608 153.7618992 -59.97076732 146.73355151 -57.125 139.6875 C-56.70347656 138.63626953 -56.28195313 137.58503906 -55.84765625 136.50195312 C-53.78405238 131.36818631 -51.69240597 126.24788554 -49.5546875 121.14453125 C-46.62116596 114.1290139 -43.81109364 107.0651441 -41 100 C-37.75558922 91.84579649 -34.48151091 83.70777125 -31.08984375 75.61328125 C-29.6897324 72.256025 -28.3404262 68.88152972 -27 65.5 C-25.250079 61.08542657 -23.45858481 56.6930487 -21.625 52.3125 C-19.01625484 46.06791391 -16.49989815 39.78880628 -14 33.5 C-9.52680547 22.24712001 -4.96978107 11.04395793 0 0 Z " fill="#F6D656" transform="translate(109,40)"/>
<path d="M0 0 C0.66 0 1.32 0 2 0 C2.6875 1.8125 2.6875 1.8125 3 4 C1.75 5.5625 1.75 5.5625 0 7 C-0.99 7.99 -1.98 8.98 -3 10 C-2.01 6.7 -1.02 3.4 0 0 Z " fill="#50451B" transform="translate(118,68)"/>
</svg>
